# xmcd CD database file
#
# Track frame offsets:
#	150
#	13875
#	27225
#	45900
#	60562
#	71662
#	86700
#	102937
#	122325
#	138862
#	152962
#	164661
#	170962
#	183637
#	202387
#	213712
#
# Disc length: 3103 seconds
#
# Revision: 3
# Processed by: cddbd v1.5.2PL0 Copyright (c) Steve Scherf et al.
# Submitted via: FreeDB 13.2
#
DISCID=f00c1d10
DTITLE=Various Artist - Blue Trail of Sorrow - 16 Top Bluegrass Gems
DYEAR=2001
DGENRE=Bluegrass
TTITLE0=Alison Krauss and Union Station Featuring Dan Tyminski - I'll Remember You, Love, in My Prayers
TTITLE1=Rhonda Vincent - You Don't Love God If You Don't Love Your Neighbor
TTITLE2=Tony Furtado Featuring Tim O'Brien - Man of Constant Sorrow
TTITLE3=Connie and Babe Featuring Red Roberts - Cruel Willie
TTITLE4=Norman Blake - Bringing In the Georgia Mail
TTITLE5=John Hartford (with Mike Compton) - Owl Feather
TTITLE6=The Freight Hoppers - Cotton Eyed Joe
TTITLE7=Ginny Hawker with Carol Elizabeth Jones - Time Is Winding Up
TTITLE8=Alison Krauss and Union Station Featuring Dan Tyminski - Blue Trail of Sorrow
TTITLE9=Dirk Powell - Wild Bill Jones
TTITLE10=The Stanley Brothers - Meet Me in the Moonlight
TTITLE11=Dry Branch Fire Squad - When I Went Down in the Valley To Pray
TTITLE12=The Cox Family with Alison Krauss - Everybody Wants To Go to Heaven
TTITLE13=Lloyd Chandler - A Conversation with Death
TTITLE14=James King - Crazy Heart
TTITLE15=Hazel Dickens - Hills of Home
EXTD=YEAR: 2001 ID3G:  89\nRounder 11661 0500-2
EXTT0=
EXTT1=
EXTT2=
EXTT3=
EXTT4=
EXTT5=
EXTT6=
EXTT7=
EXTT8=
EXTT9=
EXTT10=
EXTT11=
EXTT12=
EXTT13=
EXTT14=
EXTT15=
PLAYORDER=
